<svg id="visual" viewBox="0 0 900 600" width="900" height="600" xmlns="http://www.w3.org/2000/svg" xmlns:xlink="http://www.w3.org/1999/xlink" version="1.1"><rect x="0" y="0" width="900" height="600" fill="#000000"></rect><path d="M0 182L21.5 164.2C43 146.3 86 110.7 128.8 117.5C171.7 124.3 214.3 173.7 257.2 184C300 194.3 343 165.7 385.8 141.7C428.7 117.7 471.3 98.3 514.2 99C557 99.7 600 120.3 642.8 133.7C685.7 147 728.3 153 771.2 159C814 165 857 171 878.5 174L900 177L900 0L878.5 0C857 0 814 0 771.2 0C728.3 0 685.7 0 642.8 0C600 0 557 0 514.2 0C471.3 0 428.7 0 385.8 0C343 0 300 0 257.2 0C214.3 0 171.7 0 128.8 0C86 0 43 0 21.5 0L0 0Z" fill="#79398F" stroke-linecap="round" stroke-linejoin="miter"></path></svg>