<svg id="visual" viewBox="0 0 900 600" width="900" height="600" xmlns="http://www.w3.org/2000/svg" xmlns:xlink="http://www.w3.org/1999/xlink" version="1.1"><rect x="0" y="0" width="900" height="600" fill="#181a1f"></rect><path d="M0 392L21.5 392.7C43 393.3 86 394.7 128.8 393.7C171.7 392.7 214.3 389.3 257.2 395.2C300 401 343 416 385.8 432.2C428.7 448.3 471.3 465.7 514.2 463.3C557 461 600 439 642.8 441.2C685.7 443.3 728.3 469.7 771.2 470.3C814 471 857 446 878.5 433.5L900 421L900 601L878.5 601C857 601 814 601 771.2 601C728.3 601 685.7 601 642.8 601C600 601 557 601 514.2 601C471.3 601 428.7 601 385.8 601C343 601 300 601 257.2 601C214.3 601 171.7 601 128.8 601C86 601 43 601 21.5 601L0 601Z" fill="#79398F" stroke-linecap="round" stroke-linejoin="miter"></path></svg>